<svg width="166" height="243" viewBox="0 0 166 243" fill="none" xmlns="http://www.w3.org/2000/svg">
<path fill-rule="evenodd" clip-rule="evenodd" d="M56.2182 8.95757V96.8537H58.1463C63.6953 78.3116 79.6022 64.5841 104.432 64.5841C135.82 64.5841 155.998 86.0151 155.998 115.877V224.23L137.356 210.458V131.608C137.356 106.718 120.675 89.3398 96.7982 89.3398C85.8908 89.3398 76.0148 93.27 68.9861 100.402C63.4116 106.032 59.6457 113.648 57.8338 122.8C57.0102 125.871 56.577 129.214 56.577 132.784L56.5536 137.023C56.203 139.763 56.0624 142.834 56.1734 146.266V196.82L8.92319 196.876V8.95757H56.1734H56.2182ZM72.7453 104.526C76.4719 102.827 80.7326 101.914 85.4091 101.914C101.72 101.914 114.488 116.369 114.488 134.833V193.564L131.751 206.317V131.564C131.751 109.976 117.38 94.8935 96.7982 94.8935C87.4042 94.8935 78.9518 98.2526 72.9769 104.288C72.8993 104.367 72.8221 104.446 72.7453 104.526ZM108.883 134.833V189.423L92.7964 177.539V144.788C93.1776 123.335 82.7074 116.796 74.6811 116.796H74.3672C71.0703 116.868 67.6839 117.841 64.7382 120.103C68.3839 112.193 75.7222 107.513 85.4091 107.513C98.3566 107.513 108.883 119.762 108.883 134.833ZM65.1414 0H0V205.811H8.968L56.2182 205.755H65.1862V145.964C64.9171 137.51 66.4081 131.128 69.3787 128.048C70.0479 127.333 70.859 126.764 71.7603 126.378C72.6616 125.993 73.6334 125.799 74.6138 125.809H74.7371C75.6335 125.82 76.5182 126.014 77.3372 126.378C78.1563 126.741 78.8927 127.268 79.5014 127.925C82.472 130.937 83.9853 136.883 83.8845 144.721V182.152L87.5165 184.84L150.707 231.531L165.011 242.101V115.877C165.011 80.4054 140.103 55.6266 104.477 55.6266C90.7898 55.6266 78.4476 59.4111 68.7622 66.566C67.5403 67.4729 66.3632 68.4247 65.231 69.4324V0.0112079L65.1414 0Z" fill="white"/>
</svg>
